<svg xmlns="http://www.w3.org/2000/svg" xml:space="preserve" width="2000" height="1500" viewBox="0 0 2000 1500" data-version="1" data-id="lg_vLFl04cqhYrMo8PT0x" x="0" y="0"><rect width="2000" height="1500" id="background" stroke="transparent" fill="#1d366f"></rect><g id="outer-wrapper" data-padding="20" transform="matrix(2.012522361359571,0,0,2.012522361359571,-1012.5223613595708,-759.3917710196781)"><g id="inner-wrapper" transform="matrix(0.9487179487179487,0,0,0.9487179487179487,10,14.333333333333371)"><rect width="280.496" height="559.35" x="502.7693716983813" y="95.75743243243244" fill="none" rx="0" ry="0" transform="translate(345.68 400)"></rect><path fill="#fff" d="M939.0373716983812 925.9824324324325H941.5073716983812V930.9324324324325H870.7273716983813V925.9824324324325H873.1973716983813Q877.1573716983813 925.9824324324325 880.1273716983814 923.0124324324324T885.3273716983813 916.0824324324324T888.5473716983813 907.4224324324325Q889.5373716983813 902.7124324324325 889.5373716983813 898.7524324324324V634.9224324324325Q889.5373716983813 631.4524324324325 888.5473716983813 627.0024324324324Q887.5573716983813 622.5424324324324 885.3273716983813 618.5824324324325T880.1273716983814 611.9024324324325T873.6973716983813 609.1824324324325H871.2173716983813V604.2324324324325H942.0073716983812V609.1824324324325H939.5273716983812Q935.5673716983813 609.1824324324325 932.5973716983813 611.9024324324325T927.4073716983813 618.5824324324325Q925.1773716983813 622.5424324324325 923.9373716983813 627.0024324324324Q922.6973716983813 631.4524324324325 922.6973716983813 634.9224324324325V749.7624324324324L1048.4273716983812 625.0224324324324Q1051.3973716983814 621.5524324324325 1051.3973716983814 617.1024324324325Q1051.3973716983814 609.1824324324325 1045.4573716983814 609.1824324324325H1042.9873716983811V604.2324324324325H1103.3773716983815V609.1824324324325H1100.8973716983814Q1093.9673716983812 609.1824324324325 1086.547371698381 614.1324324324326Q1079.1173716983812 619.0824324324325 1071.6973716983812 626.5024324324324L967.7473716983812 729.9624324324325L1077.1373716983812 895.7824324324324Q1077.6373716983812 896.7724324324324 1081.5973716983813 901.7224324324325T1091.2473716983814 912.1224324324323Q1096.9373716983814 917.5624324324324 1104.1173716983812 921.7724324324324T1118.7173716983812 925.9824324324325V930.9324324324325H1106.8373716983815Q1091.9873716983811 930.9324324324325 1081.8473716983813 929.2024324324325Q1071.6973716983812 927.4624324324325 1064.2673716983813 923.5024324324324Q1056.8473716983813 919.5424324324324 1051.1573716983812 913.6024324324324Q1045.4573716983814 907.6624324324323 1039.5173716983813 898.7524324324324L943.4873716983813 753.7224324324325L922.6973716983813 775.0024324324324V898.7524324324324Q922.6973716983813 902.7124324324325 923.9373716983813 907.1724324324323Q925.1773716983813 911.6224324324323 927.1573716983813 915.8324324324324T932.1073716983814 923.0124324324322T939.0373716983813 925.9824324324322 "></path><path fill="#fff" d="M1030.3773716983815 783.9044324324325V817.9244324324325C1030.3773716983815 824.7284324324323 1035.9213716983813 830.2724324324324 1042.7253716983814 830.2724324324324H1062.1293716983814V847.4084324324324C1062.1293716983814 850.6844324324325 1065.4053716983813 852.9524324324325 1068.4293716983811 851.9444324324324L1149.8253716983813 824.2244324324324A7.06 7.06 0 0 0 1154.6133716983813 817.6724324324325V785.4164324324324C1165.7013716983815 772.5644324324326 1172.2533716983812 755.6804324324326 1171.7493716983813 737.2844324324325C1170.5733716983814 701.0754324324325 1142.3473716983813 671.5474324324325 1106.2293716983813 668.7404324324325A70.56 70.56 0 0 0 1030.6293716983814 734.5124324324324H1030.3773716983815V736.5284324324325C1030.3773716983815 742.8284324324325 1028.1093716983814 752.9084324324325 1025.0853716983816 758.4524324324325C1021.8093716983814 764.5004324324325 1018.7853716983814 770.2964324324325 1016.0133716983813 774.3284324324325C1013.4933716983813 778.3604324324324 1016.2653716983814 783.6524324324325 1021.0533716983814 783.6524324324325H1030.3773716983815ZM1047.7653716983814 726.4484324324324L1050.0333716983814 719.6444324324325C1050.7893716983813 717.1244324324325 1053.3093716983813 715.8644324324325 1055.8293716983812 716.6204324324324L1062.3813716983814 718.6364324324325C1065.1533716983813 713.3444324324325 1069.1853716983815 708.5564324324325 1073.9733716983815 704.7764324324324L1070.9493716983811 698.7284324324324C1069.6893716983814 696.4604324324325 1070.6973716983812 693.6884324324324 1072.9653716983812 692.4284324324324L1079.2653716983814 689.1524324324324C1081.5333716983814 687.8924324324324 1084.3053716983814 688.9004324324324 1085.565371698381 691.1684324324324L1088.5893716983815 697.2164324324324Q1097.6613716983811 694.5704324324324 1106.7333716983812 695.7044324324324L1108.7493716983813 689.1524324324324C1109.5053716983812 686.6324324324324 1112.0253716983812 685.3724324324324 1114.5453716983811 686.1284324324324L1121.3493716983812 688.3964324324324C1123.8693716983812 689.1524324324323 1125.1293716983814 691.6724324324324 1124.373371698381 694.1924324324324L1122.3573716983815 700.7444324324324C1127.6493716983814 703.5164324324323 1132.4373716983814 707.5484324324324 1136.2173716983812 712.3364324324324L1142.2653716983814 709.0604324324324C1144.5333716983814 707.8004324324324 1147.3053716983814 708.8084324324324 1148.565371698381 711.0764324324324L1151.8413716983814 717.3764324324325C1153.1013716983812 719.6444324324324 1152.0933716983814 722.4164324324324 1149.8253716983813 723.6764324324324L1143.5253716983812 726.9524324324325C1145.2893716983813 732.7484324324324 1145.7933716983812 739.0484324324325 1145.0373716983813 744.8444324324324L1151.8413716983814 746.8604324324324C1154.3613716983814 747.6164324324325 1155.6213716983812 750.1364324324325 1154.8653716983813 752.6564324324324L1152.5973716983813 759.4604324324324C1151.8413716983814 761.9804324324324 1149.3213716983814 763.2404324324324 1146.8013716983814 762.4844324324324L1139.9973716983814 760.2164324324324A42.8 42.8 0 0 1 1128.4053716983813 773.8244324324324L1131.6813716983816 780.1244324324325C1132.9413716983813 782.3924324324324 1131.9333716983815 785.1644324324325 1129.6653716983815 786.4244324324325L1123.3653716983813 789.7004324324325C1121.0973716983813 790.9604324324325 1118.3253716983813 789.9524324324325 1117.065371698381 787.6844324324325L1113.7893716983813 781.3844324324325C1107.9933716983815 783.1484324324324 1101.9453716983812 783.6524324324324 1095.8973716983814 782.8964324324324L1094.1333716983813 790.2044324324324C1093.3773716983815 792.7244324324324 1090.8573716983815 793.9844324324324 1088.3373716983815 793.2284324324324L1081.5333716983814 790.9604324324325C1079.0133716983814 790.2044324324324 1077.7533716983812 787.6844324324325 1078.5093716983815 785.1644324324325L1080.5253716983812 778.3604324324325C1075.2333716983812 775.5884324324325 1070.6973716983812 771.5564324324325 1066.6653716983815 766.7684324324325L1060.3653716983813 770.2964324324325C1058.0973716983813 771.5564324324325 1055.3253716983813 770.5484324324325 1054.065371698381 768.2804324324325L1050.7893716983813 761.9804324324325C1049.5293716983815 759.7124324324325 1050.5373716983813 756.9404324324325 1052.8053716983814 755.6804324324326L1058.8533716983811 752.4044324324325C1057.0893716983815 746.3564324324325 1056.5853716983816 740.3084324324325 1057.3413716983814 734.5124324324324L1050.7893716983813 732.4964324324325C1048.5213716983812 731.4884324324325 1047.0093716983815 728.9684324324325 1047.7653716983814 726.4484324324325M1092.3693716983812 743.8364324324325C1089.8493716983812 739.0484324324325 1091.8653716983813 733.0004324324325 1096.6533716983813 730.4804324324325S1107.489371698381 729.9764324324324 1110.009371698381 734.7644324324324S1110.5133716983814 745.6004324324324 1105.7253716983814 748.1204324324324S1094.8893716983812 748.6244324324325 1092.3693716983812 743.8364324324325M1096.9053716983813 718.8884324324324L1093.1253716983815 711.3284324324325C1106.4813716983813 707.2964324324325 1121.3493716983812 713.3444324324325 1127.9013716983814 726.1964324324324A28.2 28.2 0 0 1 1130.9253716983812 735.0164324324325L1121.8533716983811 734.5124324324324C1121.3493716983812 732.7484324324324 1120.8453716983813 731.2364324324324 1120.0893716983815 729.4724324324325C1115.3013716983814 721.1564324324324 1105.9773716983814 716.8724324324323 1096.9053716983813 718.8884324324324M1074.9813716983813 753.4124324324324C1068.3213716983814 740.7434324324324 1071.7213716983815 725.1224324324323 1083.0453716983811 716.3684324324324L1087.0773716983813 723.9284324324324A20.664 20.664 0 0 0 1082.7933716983812 748.8764324324325C1083.5493716983815 750.6404324324324 1084.8093716983813 751.9004324324324 1085.8173716983815 753.4124324324324L1080.777371698381 761.2244324324324C1078.5093716983815 758.9564324324324 1076.4933716983815 756.4364324324324 1074.9813716983813 753.4124324324324M1090.1013716983812 767.2724324324324L1095.1413716983811 759.2084324324323C1106.1213716983812 762.5214324324324 1117.7413716983815 756.4874324324323 1121.3493716983812 745.6004324324324L1130.6733716983813 746.1044324324324C1128.9093716983812 754.4204324324323 1123.3653716983813 761.9804324324324 1115.3013716983814 766.2644324324324C1106.9853716983812 770.2964324324324 1097.9133716983815 770.5484324324325 1090.1013716983812 767.2724324324324M1147.3053716983814 643.2884324324325C1145.2893716983813 643.2884324324325 1143.777371698381 644.8004324324324 1143.777371698381 646.8164324324325V652.8644324324325C1143.777371698381 654.8804324324325 1145.2893716983813 656.3924324324325 1147.3053716983814 656.3924324324325H1152.8493716983812C1153.605371698381 660.6764324324324 1155.3693716983812 664.7084324324325 1157.8893716983812 668.2364324324325L1154.1093716983814 672.0164324324325C1152.8493716983812 673.5284324324325 1152.8493716983812 675.5444324324325 1154.1093716983814 677.0564324324325L1158.393371698381 681.3404324324324C1159.9053716983813 682.6004324324324 1161.9213716983813 682.6004324324324 1163.433371698381 681.3404324324324L1167.2133716983813 677.5604324324324C1170.993371698381 680.0804324324324 1175.0253716983812 681.5924324324325 1179.0573716983813 682.3484324324324V687.8924324324325C1179.0573716983813 689.9084324324325 1180.569371698381 691.4204324324326 1182.585371698381 691.4204324324326H1188.6333716983813C1190.6493716983814 691.4204324324326 1192.1613716983811 689.9084324324325 1192.1613716983811 687.8924324324325V682.3484324324324C1196.4453716983812 681.5924324324326 1200.4773716983814 679.8284324324325 1204.0053716983812 677.3084324324325L1207.7853716983814 681.0884324324325C1209.297371698381 682.3484324324324 1211.3133716983812 682.3484324324324 1212.8253716983813 681.0884324324325L1217.1093716983814 676.8044324324325C1218.3693716983812 675.5444324324325 1218.3693716983812 673.2764324324324 1217.1093716983814 671.7644324324324L1213.3293716983812 667.9844324324324C1215.8493716983812 664.2044324324324 1217.3613716983814 660.1724324324325 1218.1173716983812 656.1404324324325H1223.6613716983811C1225.6773716983812 656.1404324324325 1227.1893716983814 654.6284324324324 1227.1893716983814 652.6124324324325V646.5644324324325C1227.1893716983814 644.5484324324325 1225.6773716983812 643.0364324324324 1223.6613716983811 643.0364324324324H1218.1173716983812C1217.3613716983814 638.7524324324324 1215.5973716983813 634.7204324324325 1213.0773716983813 631.1924324324325L1216.8573716983815 627.4124324324324C1218.1173716983812 626.1524324324324 1218.1173716983812 623.8844324324325 1216.8573716983815 622.3724324324324L1212.5733716983814 618.0884324324325C1211.0613716983812 616.8284324324325 1209.0453716983811 616.8284324324325 1207.5333716983814 618.0884324324325L1203.7533716983812 621.8684324324324C1199.9733716983815 619.3484324324324 1195.9413716983813 617.8364324324325 1191.9093716983812 617.0804324324324V611.5364324324324C1191.9093716983812 609.5204324324325 1190.3973716983814 608.0084324324324 1188.3813716983814 608.0084324324324H1182.3333716983811C1180.3173716983815 608.0084324324324 1178.8053716983814 609.5204324324325 1178.8053716983814 611.5364324324324V617.0804324324324C1174.5213716983812 617.8364324324325 1170.489371698381 619.6004324324324 1166.9613716983813 622.1204324324324L1163.181371698381 618.3404324324324C1161.6693716983814 617.0804324324324 1159.6533716983813 617.0804324324324 1158.1413716983811 618.3404324324324L1153.8573716983815 622.6244324324324C1152.5973716983813 624.1364324324325 1152.5973716983813 626.1524324324324 1153.8573716983815 627.6644324324325L1157.6373716983812 631.4444324324324C1155.1173716983812 635.2244324324324 1153.6053716983815 639.2564324324323 1152.8493716983812 643.2884324324324ZM1174.0173716983813 638.5004324324325C1180.065371698381 632.2004324324324 1190.1453716983815 632.2004324324324 1196.4453716983812 638.5004324324325C1202.7453716983814 644.5484324324325 1202.7453716983814 654.6284324324324 1196.4453716983812 660.9284324324324C1190.3973716983814 667.2284324324324 1180.317371698381 667.2284324324324 1174.0173716983813 660.9284324324324S1167.969371698381 644.8004324324324 1174.0173716983813 638.5004324324325M1226.433371698381 696.9644324324324L1222.9053716983813 694.9484324324324C1221.645371698381 694.1924324324325 1220.1333716983813 694.6964324324324 1219.6293716983814 695.9564324324324L1217.6133716983813 698.9804324324324C1214.8413716983814 697.9724324324325 1211.817371698381 697.7204324324324 1208.7933716983812 697.7204324324324L1207.7853716983814 693.9404324324324C1207.5333716983814 692.6804324324324 1206.0213716983812 691.9244324324325 1204.761371698381 692.1764324324324L1200.7293716983813 693.1844324324325C1199.469371698381 693.4364324324324 1198.7133716983813 694.9484324324324 1198.9653716983812 696.2084324324323L1199.973371698381 699.9884324324323C1197.201371698381 701.2484324324323 1194.681371698381 703.2644324324324 1192.917371698381 705.5324324324324L1189.6413716983811 703.5164324324323C1188.3813716983814 702.7604324324324 1186.8693716983812 703.2644324324324 1186.3653716983813 704.5244324324324L1184.3493716983812 708.0524324324324C1183.5933716983814 709.3124324324324 1184.0973716983813 710.8244324324323 1185.3573716983815 711.3284324324324L1188.6333716983813 713.3444324324323C1187.625371698381 716.1164324324324 1187.373371698381 719.1404324324324 1187.373371698381 722.1644324324324L1183.5933716983814 723.1724324324323C1182.3333716983811 723.4244324324324 1181.5773716983813 724.9364324324324 1181.8293716983812 726.1964324324324L1182.8373716983815 730.2284324324323C1183.0893716983815 731.4884324324323 1184.6013716983812 732.2444324324324 1185.8613716983814 731.9924324324323L1189.6413716983811 730.9844324324324C1190.9013716983814 733.7564324324323 1192.9173716983814 736.2764324324323 1195.1853716983815 738.0404324324323L1193.1693716983814 741.3164324324323C1192.4133716983815 742.5764324324323 1192.9173716983814 744.0884324324323 1194.1773716983812 744.5924324324324L1197.7053716983814 746.6084324324324C1198.9653716983812 747.3644324324323 1200.4773716983814 746.8604324324324 1200.9813716983813 745.6004324324324L1202.9973716983814 742.3244324324323C1205.7693716983813 743.3324324324324 1208.7933716983812 743.5844324324323 1211.8173716983815 743.5844324324323L1212.5733716983814 747.6164324324324C1212.8253716983813 748.8764324324324 1214.3373716983815 749.6324324324323 1215.5973716983813 749.3804324324324L1219.6293716983814 748.3724324324323C1220.8893716983812 748.1204324324324 1221.6453716983815 746.6084324324324 1221.3933716983815 745.3484324324324L1220.3853716983813 741.5684324324325C1223.1573716983812 740.3084324324325 1225.6773716983812 738.2924324324324 1227.4413716983813 736.0244324324324L1230.7173716983812 738.0404324324325C1231.9773716983814 738.7964324324324 1233.4893716983815 738.2924324324324 1233.9933716983815 737.0324324324324L1236.009371698381 733.5044324324324C1236.7653716983814 732.2444324324324 1236.261371698381 730.7324324324325 1235.0013716983813 730.2284324324324L1231.7253716983814 728.2124324324325C1232.7333716983812 725.4404324324324 1232.9853716983812 722.4164324324324 1232.9853716983812 719.3924324324324L1236.7653716983814 718.3844324324325C1238.0253716983812 718.1324324324324 1238.781371698381 716.6204324324324 1238.529371698381 715.3604324324324L1237.5213716983812 711.3284324324325C1237.2693716983813 710.0684324324325 1235.7573716983811 709.3124324324324 1234.4973716983814 709.5644324324325L1230.7173716983812 710.5724324324324C1229.4573716983814 707.8004324324324 1227.4413716983813 705.2804324324325 1225.1733716983813 703.5164324324325L1227.1893716983814 700.2404324324325C1228.1973716983812 699.2324324324325 1227.6933716983813 697.7204324324325 1226.433371698381 696.9644324324324M1213.0773716983813 731.4884324324324C1207.281371698381 733.0004324324325 1201.2333716983812 729.4724324324325 1199.721371698381 723.6764324324324S1201.7373716983811 711.8324324324324 1207.5333716983814 710.3204324324324S1219.3773716983815 712.3364324324325 1220.8893716983812 718.1324324324324S1218.873371698381 729.9764324324324 1213.0773716983813 731.4884324324324 "></path></g><rect width="390" height="559" x="805" y="470.5" id="space-saver" fill="transparent" stroke="transparent"></rect></g></svg>